<svg xmlns="http://www.w3.org/2000/svg" xmlns:xlink="http://www.w3.org/1999/xlink" width="500" zoomAndPan="magnify" viewBox="0 0 375 374.999991" height="500" preserveAspectRatio="xMidYMid meet" version="1.0"><defs><clipPath id="ea256e0b17"><path d="M 3 26 L 361 26 L 361 367 L 3 367 Z M 3 26 " clip-rule="nonzero"/></clipPath><clipPath id="c1cd964f96"><path d="M -49.160156 94.640625 L 364.304688 12.746094 L 418.367188 285.695312 L 4.898438 367.585938 Z M -49.160156 94.640625 " clip-rule="nonzero"/></clipPath><clipPath id="8bf3c47bca"><path d="M -49.160156 94.640625 L 364.304688 12.746094 L 418.367188 285.695312 L 4.898438 367.585938 Z M -49.160156 94.640625 " clip-rule="nonzero"/></clipPath><clipPath id="98a63e74a8"><path d="M 334 12 L 365 12 L 365 47 L 334 47 Z M 334 12 " clip-rule="nonzero"/></clipPath><clipPath id="f7201ac7da"><path d="M -49.160156 94.640625 L 364.304688 12.746094 L 418.367188 285.695312 L 4.898438 367.585938 Z M -49.160156 94.640625 " clip-rule="nonzero"/></clipPath><clipPath id="8c83450d54"><path d="M -49.160156 94.640625 L 364.304688 12.746094 L 418.367188 285.695312 L 4.898438 367.585938 Z M -49.160156 94.640625 " clip-rule="nonzero"/></clipPath><clipPath id="a64345a4f8"><path d="M 78.078125 268.652344 L 79.527344 268.652344 L 79.527344 269.902344 L 78.078125 269.902344 Z M 78.078125 268.652344 " clip-rule="nonzero"/></clipPath><clipPath id="0b90a1fd7f"><path d="M 79.5 269.101562 C 78.898438 270.148438 78.300781 269.925781 78.148438 269.699219 C 78 269.550781 78.148438 268.875 78.300781 268.726562 C 78.523438 268.574219 79.351562 268.800781 79.351562 268.800781 " clip-rule="nonzero"/></clipPath></defs><g clip-path="url(#ea256e0b17)"><g clip-path="url(#c1cd964f96)"><g clip-path="url(#8bf3c47bca)"><path fill="#ffffff" d="M 6.804688 354.839844 L 103.390625 229.851562 L 106.726562 225.53125 L 111.179688 228.695312 L 145.011719 252.734375 L 137.152344 253.984375 L 188.089844 185.238281 L 189.554688 183.265625 L 191.996094 182.976562 L 225.9375 178.984375 L 221.632812 181.867188 L 247.0625 136.15625 L 248.394531 133.761719 L 251.09375 133.3125 L 284.792969 127.679688 L 281.015625 130.109375 L 347.625 31.25 L 350.800781 26.535156 L 360.230469 32.886719 L 357.054688 37.601562 L 290.445312 136.464844 L 289.078125 138.492188 L 286.667969 138.894531 L 252.96875 144.527344 L 257 141.683594 L 231.570312 187.394531 L 230.15625 189.9375 L 227.265625 190.277344 L 193.324219 194.269531 L 197.226562 192.007812 L 146.289062 260.753906 L 142.96875 265.230469 L 138.425781 262.003906 L 104.59375 237.960938 L 112.386719 236.804688 L 15.804688 361.792969 L 12.328125 366.292969 L 3.328125 359.339844 Z M 6.804688 354.839844 " fill-opacity="1" fill-rule="nonzero"/></g></g></g><g clip-path="url(#98a63e74a8)"><g clip-path="url(#f7201ac7da)"><g clip-path="url(#8c83450d54)"><path fill="#ffffff" d="M 364.445312 12.738281 L 364.449219 12.742188 L 334.25 29.039062 C 344.042969 34.921875 353.839844 40.804688 363.636719 46.6875 L 364.445312 12.738281 " fill-opacity="1" fill-rule="nonzero"/></g></g></g><g clip-path="url(#a64345a4f8)"><g clip-path="url(#0b90a1fd7f)"><path fill="#ffffff" d="M 75.148438 265.726562 L 82.566406 265.726562 L 82.566406 273 L 75.148438 273 Z M 75.148438 265.726562 " fill-opacity="1" fill-rule="nonzero"/></g></g></svg>