<svg xmlns="http://www.w3.org/2000/svg" xmlns:xlink="http://www.w3.org/1999/xlink" width="1000" zoomAndPan="magnify" viewBox="0 0 750 374.999991" height="500" preserveAspectRatio="xMidYMid meet" version="1.0"><path stroke-linecap="butt" transform="matrix(0.75, -0.000000000000000093, 0.000000000000000093, 0.75, 0.000009, 152.151772)" fill="none" stroke-linejoin="miter" d="M -0.000012 1.000762 L 1000.000054 1.000762 " stroke="#d9d9d9" stroke-width="2" stroke-opacity="1" stroke-miterlimit="4"/><path stroke-linecap="butt" transform="matrix(0.75, 0, 0, 0.75, 0.000009, 84.91071)" fill="none" stroke-linejoin="miter" d="M -0.000012 0.999261 L 1000.000054 0.999261 " stroke="#d9d9d9" stroke-width="2" stroke-opacity="1" stroke-miterlimit="4"/><path stroke-linecap="butt" transform="matrix(0.75, 0, 0, 0.75, 1.344527, 299.151777)" fill="none" stroke-linejoin="miter" d="M -0.00103658 1.000756 L 998.207362 1.000756 " stroke="#d9d9d9" stroke-width="2" stroke-opacity="1" stroke-miterlimit="4"/><path stroke-linecap="butt" transform="matrix(0.75, 0.000000000000000043, -0.000000000000000043, 0.75, 1.344528, 231.651767)" fill="none" stroke-linejoin="miter" d="M -0.0010367 1.000769 L 998.207362 1.000769 " stroke="#d9d9d9" stroke-width="2" stroke-opacity="1" stroke-miterlimit="4"/><path stroke-linecap="butt" transform="matrix(0.75, 0, 0, 0.75, 0.000009, 23.515117)" fill="none" stroke-linejoin="miter" d="M -0.000012 1.000678 L 1000.000054 1.000678 " stroke="#d9d9d9" stroke-width="2" stroke-opacity="1" stroke-miterlimit="4"/><path stroke-linecap="butt" transform="matrix(0.375, -0.649519, 0.649519, 0.375, -34.730075, 198.705719)" fill="none" stroke-linejoin="miter" d="M -0.00249865 0.999172 L 306.509772 0.998113 " stroke="#d9d9d9" stroke-width="2" stroke-opacity="1" stroke-miterlimit="4"/><path stroke-linecap="butt" transform="matrix(0.375, -0.649519, 0.649519, 0.375, 1.344251, 280.026046)" fill="none" stroke-linejoin="miter" d="M -0.00255301 0.999038 L 429.516591 1.000029 " stroke="#d9d9d9" stroke-width="2" stroke-opacity="1" stroke-miterlimit="4"/><path stroke-linecap="butt" transform="matrix(0.375, -0.649519, 0.649519, 0.375, 13.987093, 416.221341)" fill="none" stroke-linejoin="miter" d="M -0.0014482 1.001 L 638.625545 0.999874 " stroke="#d9d9d9" stroke-width="2" stroke-opacity="1" stroke-miterlimit="4"/><path stroke-linecap="butt" transform="matrix(0.375, -0.649519, 0.649519, 0.375, 129.641002, 383.077328)" fill="none" stroke-linejoin="miter" d="M -0.0018922 0.998847 L 589.791105 0.998101 " stroke="#d9d9d9" stroke-width="2" stroke-opacity="1" stroke-miterlimit="4"/><path stroke-linecap="butt" transform="matrix(0.375, -0.649519, 0.649519, 0.375, 234.633303, 373.874447)" fill="none" stroke-linejoin="miter" d="M -0.00168618 0.998553 L 577.47107 1.002276 " stroke="#d9d9d9" stroke-width="2" stroke-opacity="1" stroke-miterlimit="4"/><path stroke-linecap="butt" transform="matrix(0.375, -0.649519, 0.649519, 0.375, 337.474292, 376.044614)" fill="none" stroke-linejoin="miter" d="M 0.00269178 1.000276 L 576.775141 0.999365 " stroke="#d9d9d9" stroke-width="2" stroke-opacity="1" stroke-miterlimit="4"/><path stroke-linecap="butt" transform="matrix(0.375, -0.649519, 0.649519, 0.375, 443.364388, 378.3373)" fill="none" stroke-linejoin="miter" d="M 0.00271862 1.001076 L 588.792454 1.002213 " stroke="#d9d9d9" stroke-width="2" stroke-opacity="1" stroke-miterlimit="4"/><path stroke-linecap="butt" transform="matrix(0.375, -0.649519, 0.649519, 0.375, 664.162981, 372.766675)" fill="none" stroke-linejoin="miter" d="M 0.00121184 0.9993 L 227.165355 1.000765 " stroke="#d9d9d9" stroke-width="2" stroke-opacity="1" stroke-miterlimit="4"/><path stroke-linecap="butt" transform="matrix(0.375, -0.649519, 0.649519, 0.375, 559.772204, 373.87187)" fill="none" stroke-linejoin="miter" d="M 0.000997313 0.999658 L 538.260283 1.000331 " stroke="#d9d9d9" stroke-width="2" stroke-opacity="1" stroke-miterlimit="4"/></svg>