<svg xmlns="http://www.w3.org/2000/svg" xmlns:xlink="http://www.w3.org/1999/xlink" width="500" zoomAndPan="magnify" viewBox="0 0 375 749.999995" height="1000" preserveAspectRatio="xMidYMid meet" version="1.0"><path stroke-linecap="butt" transform="matrix(0.75, -0.000000000000000372, 0.000000000000000372, 0.75, 0.000001325, 310.117154)" fill="none" stroke-linejoin="miter" d="M -0.00000176667 0.500044 L 500.000023 0.500044 " stroke="#d9d9d9" stroke-width="1" stroke-opacity="1" stroke-miterlimit="4"/><path stroke-linecap="butt" transform="matrix(0.75, 0, 0, 0.75, 0.000001325, 174.535046)" fill="none" stroke-linejoin="miter" d="M -0.00000176667 0.500147 L 500.000023 0.500147 " stroke="#d9d9d9" stroke-width="1" stroke-opacity="1" stroke-miterlimit="4"/><path stroke-linecap="butt" transform="matrix(0.75, 0, 0, 0.75, 0.672261, 606.521822)" fill="none" stroke-linejoin="miter" d="M -0.000514054 0.502153 L 499.103677 0.502153 " stroke="#d9d9d9" stroke-width="1" stroke-opacity="1" stroke-miterlimit="4"/><path stroke-linecap="butt" transform="matrix(0.75, 0, 0, 0.75, 0.672261, 470.417661)" fill="none" stroke-linejoin="miter" d="M -0.000514054 0.50041 L 499.103677 0.50041 " stroke="#d9d9d9" stroke-width="1" stroke-opacity="1" stroke-miterlimit="4"/><path stroke-linecap="butt" transform="matrix(0.75, 0, 0, 0.75, 0.000001325, 50.73951)" fill="none" stroke-linejoin="miter" d="M -0.00000176667 0.498362 L 500.000023 0.498362 " stroke="#d9d9d9" stroke-width="1" stroke-opacity="1" stroke-miterlimit="4"/><path stroke-linecap="butt" transform="matrix(0.106691, -0.742373, 0.742373, 0.106691, 0.62547, 276.522254)" fill="none" stroke-linejoin="miter" d="M 0.00171528 0.498995 L 369.609518 0.498607 " stroke="#d9d9d9" stroke-width="1" stroke-opacity="1" stroke-miterlimit="4"/><path stroke-linecap="butt" transform="matrix(0.106291, -0.74243, 0.74243, 0.106291, 0.62383, 567.521992)" fill="none" stroke-linejoin="miter" d="M 0.00141145 0.501211 L 757.680424 0.502014 " stroke="#d9d9d9" stroke-width="1" stroke-opacity="1" stroke-miterlimit="4"/><path stroke-linecap="butt" transform="matrix(0.104725, -0.742652, 0.742652, 0.104725, 21.101267, 754.526479)" fill="none" stroke-linejoin="miter" d="M 0.000958232 0.49995 L 1008.237545 0.497364 " stroke="#d9d9d9" stroke-width="1" stroke-opacity="1" stroke-miterlimit="4"/><path stroke-linecap="butt" transform="matrix(0.104402, -0.742698, 0.742698, 0.104402, 69.700757, 754.525879)" fill="none" stroke-linejoin="miter" d="M -0.000391718 0.49764 L 1012.035507 0.499183 " stroke="#d9d9d9" stroke-width="1" stroke-opacity="1" stroke-miterlimit="4"/><path stroke-linecap="butt" transform="matrix(0.106291, -0.74243, 0.74243, 0.106291, 117.265659, 756.750919)" fill="none" stroke-linejoin="miter" d="M -0.000851323 0.499913 L 1018.672046 0.501863 " stroke="#d9d9d9" stroke-width="1" stroke-opacity="1" stroke-miterlimit="4"/><path stroke-linecap="butt" transform="matrix(0.106291, -0.74243, 0.74243, 0.106291, 168.690375, 761.134783)" fill="none" stroke-linejoin="miter" d="M 0.000737556 0.501121 L 1017.442089 0.500498 " stroke="#d9d9d9" stroke-width="1" stroke-opacity="1" stroke-miterlimit="4"/><path stroke-linecap="butt" transform="matrix(0.107814, -0.74221, 0.74221, 0.107814, 221.635083, 765.759175)" fill="none" stroke-linejoin="miter" d="M 0.00107895 0.502032 L 1023.974822 0.501666 " stroke="#d9d9d9" stroke-width="1" stroke-opacity="1" stroke-miterlimit="4"/><path stroke-linecap="butt" transform="matrix(0.106291, -0.74243, 0.74243, 0.106291, 332.035005, 754.525303)" fill="none" stroke-linejoin="miter" d="M 0.000433025 0.499978 L 400.722319 0.500742 " stroke="#d9d9d9" stroke-width="1" stroke-opacity="1" stroke-miterlimit="4"/><path stroke-linecap="butt" transform="matrix(0.106078, -0.74246, 0.74246, 0.106078, 279.836678, 756.752023)" fill="none" stroke-linejoin="miter" d="M 0.000328798 0.498772 L 893.571886 0.50032 " stroke="#d9d9d9" stroke-width="1" stroke-opacity="1" stroke-miterlimit="4"/><path stroke-linecap="butt" transform="matrix(0.75, 0, 0, 0.75, 0.000001325, 112.637278)" fill="none" stroke-linejoin="miter" d="M -0.00000176667 0.499255 L 500.000023 0.499255 " stroke="#d9d9d9" stroke-width="1" stroke-opacity="1" stroke-miterlimit="4"/><path stroke-linecap="butt" transform="matrix(0.75, 0, 0, 0.75, 9.713415, 242.326093)" fill="none" stroke-linejoin="miter" d="M 0.00190434 0.497501 L 500.001929 0.497501 " stroke="#d9d9d9" stroke-width="1" stroke-opacity="1" stroke-miterlimit="4"/><path stroke-linecap="butt" transform="matrix(0.75, 0, 0, 0.75, 0.000001325, 390.267423)" fill="none" stroke-linejoin="miter" d="M -0.00000176667 0.497602 L 500.000023 0.497602 " stroke="#d9d9d9" stroke-width="1" stroke-opacity="1" stroke-miterlimit="4"/><path stroke-linecap="butt" transform="matrix(0.75, 0, 0, 0.75, 0.000001325, 538.469754)" fill="none" stroke-linejoin="miter" d="M -0.00000176667 0.498662 L 500.000023 0.498662 " stroke="#d9d9d9" stroke-width="1" stroke-opacity="1" stroke-miterlimit="4"/><path stroke-linecap="butt" transform="matrix(0.75, 0, 0, 0.75, 0.000001325, 678.740843)" fill="none" stroke-linejoin="miter" d="M -0.00000176667 0.501793 L 500.000023 0.501793 " stroke="#d9d9d9" stroke-width="1" stroke-opacity="1" stroke-miterlimit="4"/></svg>